<svg id="icon_art" data-name="icon art" xmlns="http://www.w3.org/2000/svg" viewBox="0 0 288 288"><defs><style>.cls-1{fill:#312d2a;}</style></defs><title>RMIL_Technology</title><path class="cls-1" d="M241.09,190.35a32.38,32.38,0,0,0-24.21,0c-8.42,3.33-8.08,8.26-7.75,9.75h0L212,212h34l2.86-12h0C249.17,198.45,249.37,193.63,241.09,190.35ZM239.89,204h-21.7l-1.06-4.75a9.48,9.48,0,0,1,2.7-1.46,24.47,24.47,0,0,1,18.31,0,9.57,9.57,0,0,1,2.71,1.47ZM78,208H186v8H78Zm102-6H84v-8h96ZM72.34,180l-20,50H212.1l-20-50Zm-8.21,42,13.62-34h108.9l13.62,34ZM69,156h42.23l-1.36,10H104l-8,4v4h72v-4l-8-4h-5.87l-1.36-10H195a9,9,0,0,0,9-9V67a9,9,0,0,0-9-9H69a9,9,0,0,0-9,9v80A9,9,0,0,0,69,156Zm48.94,10,1.36-10h25.4l1.36,10ZM68,67a1,1,0,0,1,1-1H195a1,1,0,0,1,1,1v67H68Zm0,75H196v5a1,1,0,0,1-1,1H69a1,1,0,0,1-1-1Z"/></svg>